<svg xmlns="http://www.w3.org/2000/svg" xmlns:xlink="http://www.w3.org/1999/xlink" width="107.469" height="33.242" viewBox="0 0 107.469 33.242"><defs><style>.a,.b,.c{fill:#fcfcfc;}.a{font-size:16px;font-family:Sarabun-SemiBold, Sarabun;font-weight:600;}.b{stroke:rgba(0,0,0,0);stroke-miterlimit:10;}.d{filter:url(#a);}</style><filter id="a" x="0" y="0" width="40.937" height="33.242" filterUnits="userSpaceOnUse"><feOffset dy="-2" input="SourceAlpha"/><feGaussianBlur stdDeviation="3" result="b"/><feFlood flood-opacity="0.161"/><feComposite operator="in" in2="b"/><feComposite in="SourceGraphic"/></filter></defs><g transform="translate(8.469 8)"><text class="a" transform="translate(32 17)"><tspan x="0" y="0">พร้อมขาย</tspan></text><g transform="translate(0 3)"><path class="b" d="M16.754,15.242a2.48,2.48,0,0,1-.585-.067,2.135,2.135,0,0,1-.5-.188,2.49,2.49,0,0,1-.775-.662,7.829,7.829,0,0,1-1-1.915h0l-.005-.012c-.052-.126-.1-.245-.152-.364l-.725-1.7-.118-.278-.421-.988-.421-.989c-.054.121-.154.348-.279.633v0a54.1,54.1,0,0,1-2.78,5.82,2.536,2.536,0,0,1-1.73.707,2.516,2.516,0,0,1-2.237-1.364H5.01L.169,3.484l.017-.006A2.3,2.3,0,0,1,.155,1.742a2.5,2.5,0,0,1,.258-.5A2.774,2.774,0,0,1,1.37.368,2.588,2.588,0,0,1,2.621.033a2.286,2.286,0,0,1,.746.124A2.4,2.4,0,0,1,4.08.552,2.828,2.828,0,0,1,4.9,1.757c.1.228.488,1.065.941,2.033l.016.034C6.551,5.3,7.334,6.972,7.309,7c.007-.007.3-.01.911-.01.922,0,2.442.008,3.913.016h.314c1.5.008,2.907.015,3.727.015.457,0,.687,0,.7-.007-.015-.027,1.046-2.558,1.167-2.846l0,0,.018-.043,0,0c.389-.927.791-1.885,1.271-2.794a2.6,2.6,0,0,1,.387-.55,2.4,2.4,0,0,1,.5-.416,2.359,2.359,0,0,1,.6-.263A2.5,2.5,0,0,1,21.5,0a2.476,2.476,0,0,1,.752.118A2.568,2.568,0,0,1,23.48.963a2.445,2.445,0,0,1,.376.663A2.258,2.258,0,0,1,24,2.546a3.331,3.331,0,0,1-.181.9c-.142.424-1.477,3.263-2.452,5.335-.278.59-.543,1.154-.74,1.576l-.424.909-.174.373-.893,1.914a2.518,2.518,0,0,1-2.379,1.693ZM2.439,1.435a1.052,1.052,0,1,0,.743.308A1.045,1.045,0,0,0,2.439,1.435Z" transform="translate(0 0)"/><g transform="translate(0.531)"><g class="d" transform="matrix(1, 0, 0, 1, -9, -11)"><path class="c" d="M24.381,59.367c-.891,1.422-2.4,3.455-4.291,2.737a3.654,3.654,0,0,1-1.753-2.019,27.562,27.562,0,0,1-1.326-3.163c-.5-1.411-1.273-3.077-2.961-3.077a2.536,2.536,0,0,0-2.28,1.624C11.055,56.946,10.519,58.479,9.9,60a3.6,3.6,0,0,1-1.641,2.094c-1.435.622-2.834-.612-3.7-1.661a28.174,28.174,0,0,1-1.978-3.108l-.016.006,4.7,10.395h.012a2.383,2.383,0,0,0,3.848.657,69.561,69.561,0,0,0,2.968-6.456l1.636,3.954c.582,1.407,1.135,3.208,2.928,3.208a2.449,2.449,0,0,0,2.307-1.693l1.447-3.2c.8-1.774,2.918-6.363,3.1-6.911C25.5,57.287,24.8,58.7,24.381,59.367Z" transform="translate(6.43 -42.85)"/></g></g></g></g></svg>